HIERARCHY
ROOT Hips
{
    OFFSET   0.000000   0.000000   0.000000
    CHANNELS 6 Xposition Yposition Zposition Zrotation Xrotation Yrotation
    JOINT Chest
    {
        OFFSET   0.000000   8.007240   0.000000
        CHANNELS 3 Zrotation Xrotation Yrotation
        JOINT Chest2
        {
            OFFSET   0.000000  22.077100   0.000000
            CHANNELS 3 Zrotation Xrotation Yrotation
            JOINT Neck
            {
                OFFSET   0.000000  23.254800   0.000000
                CHANNELS 3 Zrotation Xrotation Yrotation
                JOINT Head
                {
                    OFFSET   0.000000  14.370000   1.956600
                    CHANNELS 3 Zrotation Xrotation Yrotation
                    End Site
                    {
                        OFFSET   0.000000  19.566000   0.000000
                    }
                }
            }
            JOINT LeftCollar
            {
                OFFSET   3.911900  19.017000  -0.467064
                CHANNELS 3 Zrotation Xrotation Yrotation
                JOINT LeftShoulder
                {
                    OFFSET  10.383700   0.000000   0.000000
                    CHANNELS 3 Zrotation Xrotation Yrotation
                    JOINT LeftElbow
                    {
                        OFFSET  26.662100   0.001476   0.000517
                        CHANNELS 3 Zrotation Xrotation Yrotation
                        JOINT LeftWrist
                        {
                            OFFSET  28.869000  -0.000025  -0.000106
                            CHANNELS 3 Zrotation Xrotation Yrotation
                            JOINT LeftFinger0
                            {
                                OFFSET   2.044660  -2.323460   3.252850
                                CHANNELS 3 Zrotation Xrotation Yrotation
                                JOINT LeftFinger01
                                {
                                    OFFSET   3.088130   0.000000   0.000000
                                    CHANNELS 3 Zrotation Xrotation Yrotation
                                    JOINT LeftFinger02
                                    {
                                        OFFSET   2.639460   0.000000   0.000000
                                        CHANNELS 3 Zrotation Xrotation Yrotation
                                        End Site
                                        {
                                            OFFSET   2.582190   0.000000   0.000000
                                        }
                                    }
                                }
                            }
                            JOINT LeftFinger1
                            {
                                OFFSET   8.364480   0.000000   3.252850
                                CHANNELS 3 Zrotation Xrotation Yrotation
                                JOINT LeftFinger11
                                {
                                    OFFSET   4.646930   0.000000   0.000000
                                    CHANNELS 3 Zrotation Xrotation Yrotation
                                    JOINT LeftFinger12
                                    {
                                        OFFSET   2.323460   0.000000   0.000000
                                        CHANNELS 3 Zrotation Xrotation Yrotation
                                        End Site
                                        {
                                            OFFSET   2.273050   0.000000   0.000000
                                        }
                                    }
                                }
                            }
                            JOINT LeftFinger2
                            {
                                OFFSET   8.364490   0.000015   1.078090
                                CHANNELS 3 Zrotation Xrotation Yrotation
                                JOINT LeftFinger21
                                {
                                    OFFSET   5.111620   0.000000   0.000000
                                    CHANNELS 3 Zrotation Xrotation Yrotation
                                    JOINT LeftFinger22
                                    {
                                        OFFSET   2.788160   0.000016   0.000000
                                        CHANNELS 3 Zrotation Xrotation Yrotation
                                        End Site
                                        {
                                            OFFSET   2.727660   0.000000   0.000000
                                        }
                                    }
                                }
                            }
                            JOINT LeftFinger3
                            {
                                OFFSET   7.899780   0.000017  -1.078090
                                CHANNELS 3 Zrotation Xrotation Yrotation
                                JOINT LeftFinger31
                                {
                                    OFFSET   4.646930   0.000000   0.000000
                                    CHANNELS 3 Zrotation Xrotation Yrotation
                                    JOINT LeftFinger32
                                    {
                                        OFFSET   2.323470   0.000000   0.000000
                                        CHANNELS 3 Zrotation Xrotation Yrotation
                                        End Site
                                        {
                                            OFFSET   2.273050   0.000000   0.000000
                                        }
                                    }
                                }
                            }
                            JOINT LeftFinger4
                            {
                                OFFSET   7.435090   0.000000  -3.252850
                                CHANNELS 3 Zrotation Xrotation Yrotation
                                JOINT LeftFinger41
                                {
                                    OFFSET   3.717550   0.000000   0.000000
                                    CHANNELS 3 Zrotation Xrotation Yrotation
                                    JOINT LeftFinger42
                                    {
                                        OFFSET   1.858770   0.000000   0.000000
                                        CHANNELS 3 Zrotation Xrotation Yrotation
                                        End Site
                                        {
                                            OFFSET   1.818440   0.000000   0.000000
                                        }
                                    }
                                }
                            }
                        }
                    }
                }
            }
            JOINT RightCollar
            {
                OFFSET  -3.911900  19.017000  -0.467063
                CHANNELS 3 Zrotation Xrotation Yrotation
                JOINT RightShoulder
                {
                    OFFSET -10.383700   0.000019   0.000000
                    CHANNELS 3 Zrotation Xrotation Yrotation
                    JOINT RightElbow
                    {
                        OFFSET -26.662100   0.001175   0.000102
                        CHANNELS 3 Zrotation Xrotation Yrotation
                        JOINT RightWrist
                        {
                            OFFSET -28.869000   0.000016  -0.000079
                            CHANNELS 3 Zrotation Xrotation Yrotation
                            JOINT RightFinger0
                            {
                                OFFSET  -2.044660  -2.323490   3.252850
                                CHANNELS 3 Zrotation Xrotation Yrotation
                                JOINT RightFinger01
                                {
                                    OFFSET  -3.088140   0.000000   0.000000
                                    CHANNELS 3 Zrotation Xrotation Yrotation
                                    JOINT RightFinger02
                                    {
                                        OFFSET  -2.639460   0.000000   0.000000
                                        CHANNELS 3 Zrotation Xrotation Yrotation
                                        End Site
                                        {
                                            OFFSET  -2.582190   0.000000   0.000000
                                        }
                                    }
                                }
                            }
                            JOINT RightFinger1
                            {
                                OFFSET  -8.364480   0.000000   3.252850
                                CHANNELS 3 Zrotation Xrotation Yrotation
                                JOINT RightFinger11
                                {
                                    OFFSET  -4.646930   0.000000   0.000000
                                    CHANNELS 3 Zrotation Xrotation Yrotation
                                    JOINT RightFinger12
                                    {
                                        OFFSET  -2.323470   0.000000   0.000000
                                        CHANNELS 3 Zrotation Xrotation Yrotation
                                        End Site
                                        {
                                            OFFSET  -2.273050   0.000000   0.000000
                                        }
                                    }
                                }
                            }
                            JOINT RightFinger2
                            {
                                OFFSET  -8.364480   0.000000   1.078090
                                CHANNELS 3 Zrotation Xrotation Yrotation
                                JOINT RightFinger21
                                {
                                    OFFSET  -5.111620   0.000000   0.000000
                                    CHANNELS 3 Zrotation Xrotation Yrotation
                                    JOINT RightFinger22
                                    {
                                        OFFSET  -2.788160   0.000000   0.000000
                                        CHANNELS 3 Zrotation Xrotation Yrotation
                                        End Site
                                        {
                                            OFFSET  -2.727660   0.000000   0.000000
                                        }
                                    }
                                }
                            }
                            JOINT RightFinger3
                            {
                                OFFSET  -7.899780   0.000000  -1.078090
                                CHANNELS 3 Zrotation Xrotation Yrotation
                                JOINT RightFinger31
                                {
                                    OFFSET  -4.646930   0.000000   0.000000
                                    CHANNELS 3 Zrotation Xrotation Yrotation
                                    JOINT RightFinger32
                                    {
                                        OFFSET  -2.323470   0.000000   0.000000
                                        CHANNELS 3 Zrotation Xrotation Yrotation
                                        End Site
                                        {
                                            OFFSET  -2.273050   0.000000   0.000000
                                        }
                                    }
                                }
                            }
                            JOINT RightFinger4
                            {
                                OFFSET  -7.435090   0.000000  -3.252850
                                CHANNELS 3 Zrotation Xrotation Yrotation
                                JOINT RightFinger41
                                {
                                    OFFSET  -3.717550   0.000000   0.000000
                                    CHANNELS 3 Zrotation Xrotation Yrotation
                                    JOINT RightFinger42
                                    {
                                        OFFSET  -1.858770   0.000000   0.000000
                                        CHANNELS 3 Zrotation Xrotation Yrotation
                                        End Site
                                        {
                                            OFFSET  -1.818440   0.000000   0.000000
                                        }
                                    }
                                }
                            }
                        }
                    }
                }
            }
        }
    }
    JOINT LeftHip
    {
        OFFSET   9.783040   0.000000   0.000000
        CHANNELS 3 Zrotation Xrotation Yrotation
        JOINT LeftKnee
        {
            OFFSET   0.000032 -41.789100  -0.002222
            CHANNELS 3 Zrotation Xrotation Yrotation
            JOINT LeftAnkle
            {
                OFFSET   0.000087 -41.133200  -0.000135
                CHANNELS 3 Zrotation Xrotation Yrotation
                JOINT LeftToe
                {
                    OFFSET   0.000000  -6.358960  14.674500
                    CHANNELS 3 Zrotation Xrotation Yrotation
                    End Site
                    {
                        OFFSET   0.000000   0.000000   3.913200
                    }
                }
            }
        }
    }
    JOINT RightHip
    {
        OFFSET  -9.783040   0.000000   0.000000
        CHANNELS 3 Zrotation Xrotation Yrotation
        JOINT RightKnee
        {
            OFFSET   0.000047 -41.789100  -0.000896
            CHANNELS 3 Zrotation Xrotation Yrotation
            JOINT RightAnkle
            {
                OFFSET  -0.000117 -41.133300  -0.000248
                CHANNELS 3 Zrotation Xrotation Yrotation
                JOINT RightToe
                {
                    OFFSET   0.000000  -6.358970  14.674500
                    CHANNELS 3 Zrotation Xrotation Yrotation
                    End Site
                    {
                        OFFSET   0.000000   0.000000   3.913200
                    }
                }
            }
        }
    }
}
MOTION
Frames: 4
Frame Time:   0.016667
 -1.011650  89.559300   0.435212  -2.496300  -1.830950   2.862830   1.351120   2.359830  -1.713080   2.775780   4.677490  -3.485810  -0.042607   0.134567   0.007233  -0.067900   0.265267  12.279400  -7.863180   3.719670  -1.048040 -68.882500  17.088500  -5.855420  -3.012950 -10.710400 -11.221600   2.155700  -7.653140   6.324010  41.180300  25.316100 -62.705700 -17.781900   0.003097   0.005491  -3.887040   0.001544  -0.002681 -29.394400   5.079830  -8.932430 -24.374800   0.001469   0.006105 -17.062400   0.001001  -0.000282 -27.644500   1.398840  -2.668470 -30.106000   0.001144   0.000398 -20.050600  -0.011180  -0.001886 -27.290300  -2.172660   4.204510 -28.539100  -0.002379  -0.004344 -19.007000  -0.002395  -0.002695 -26.696500  -2.998440   5.952040 -40.275400  -0.001241  -0.011141 -26.825100  -0.003273  -0.004994   7.283430   1.000750  11.581300  67.261600  14.193600   4.301320   0.119063  -5.366930   8.716000  -9.598640 -10.349200   5.240570 -50.585300  36.304300  73.059400  11.120100   0.006688  -0.006700   0.560064   0.003480   0.012352  29.586600   7.583470  13.085300  24.919900  -0.008497  -0.002815  17.429600  -0.008626  -0.003101  28.006500   3.696740   6.912350  33.632600  -0.000774  -0.004403  22.399300   0.002967   0.001805  28.427000   1.457600   2.691040  35.677100  -0.000198  -0.003974  23.754600  -0.001507  -0.000270  34.122500   0.235527   0.341829  51.184800  -0.000469  -0.001485  34.089100  -0.000815  -0.002179   2.844790   5.104120   4.542250   0.535756   0.437979   7.667360  -1.391460  -3.168580  -0.459701  -0.000000   0.000000   0.000000   1.108880   0.195792  -4.691130   1.724720   4.103840  -6.910160  -3.300870  -1.726530  -2.247580   0.000000   0.000000   0.000000
 -1.011350  89.559300   0.428167  -2.495500  -1.842650   2.867690   1.351280   2.367940  -1.711340   2.776340   4.693760  -3.482540  -0.048810   0.133048   0.007250  -0.078559   0.263721  12.285700  -7.863280   3.709780  -1.047760 -68.891900  17.089200  -5.855370  -3.008970 -10.711200 -11.200000   2.147270  -7.645810   6.319360  41.187100  25.325000 -62.719000 -17.782300   0.003086   0.005492  -3.886950   0.001530  -0.002682 -29.404500   5.089340  -8.945180 -24.384100   0.001466   0.006102 -17.068900   0.001000  -0.000282 -27.647400   1.405560  -2.680930 -30.123300   0.001147   0.000397 -20.062100  -0.011182  -0.001891 -27.291000  -2.168220   4.195300 -28.554500  -0.002383  -0.004352 -19.017300  -0.002393  -0.002683 -26.696100  -2.998500   5.952280 -40.275400  -0.001239  -0.011143 -26.824700  -0.003270  -0.004974   7.284120   0.978095  11.581600  67.268300  14.193900   4.284410   0.099523  -5.341710   8.758820  -9.593040 -10.362000   5.263850 -50.584300  36.300500  73.050200  11.119100   0.006692  -0.006695   0.559546   0.003478   0.012354  29.573700   7.584570  13.093100  24.909700  -0.008504  -0.002813  17.429600  -0.008624  -0.003101  28.005200   3.701210   6.921460  33.614100  -0.000774  -0.004409  22.387000   0.002970   0.001813  28.426500   1.461700   2.698660  35.674800  -0.000198  -0.003974  23.755300  -0.001505  -0.000268  34.122500   0.236096   0.344299  51.184800  -0.000467  -0.001482  34.089100  -0.000810  -0.002178   2.843900   5.113060   4.542300   0.539386   0.431344   7.663660  -1.390480  -3.160350  -0.459865  -0.000000   0.000000   0.000000   1.108590   0.187945  -4.691170   1.725760   4.121820  -6.910350  -3.301080  -1.730890  -2.248530  -0.000000   0.000000  -0.000000
 -1.011050  89.559300   0.416485  -2.494070  -1.862910   2.876610   1.351520   2.382260  -1.708260   2.777140   4.722460  -3.476780  -0.059644   0.130019   0.007267  -0.097141   0.260319  12.298100  -7.863490   3.693580  -1.047470 -68.908200  17.093600  -5.855390  -3.002910 -10.712400 -11.167500   2.132620  -7.634730   6.307460  41.185200  25.330800 -62.736400 -17.782700   0.003055   0.005494  -3.886800   0.001504  -0.002684 -29.419100   5.107640  -8.971470 -24.398200   0.001464   0.006094 -17.078700   0.000999  -0.000282 -27.651800   1.418650  -2.705340 -30.149800   0.001153   0.000393 -20.079700  -0.011189  -0.001905 -27.292200  -2.159750   4.177960 -28.577500  -0.002395  -0.004373 -19.032600  -0.002387  -0.002653 -26.695700  -2.998590   5.952520 -40.275400  -0.001232  -0.011144 -26.824300  -0.003261  -0.004926   7.284710   0.939006  11.581700  67.288600  14.194400   4.254170   0.056364  -5.289630   8.844630  -9.585390 -10.374700   5.298470 -50.583300  36.296700  73.041000  11.111900   0.006698  -0.006690   0.555966   0.003475   0.012366  29.559800   7.587520  13.105800  24.899400  -0.008510  -0.002811  17.429600  -0.008622  -0.003100  28.003100   3.708720   6.936620  33.587600  -0.000774  -0.004426  22.369300   0.002980   0.001826  28.425600   1.470460   2.714890  35.672400  -0.000195  -0.003976  23.757800  -0.001501  -0.000262  34.122400   0.240082   0.354315  51.184800  -0.000462  -0.001473  34.089100  -0.000800  -0.002174   2.842700   5.125890   4.542380   0.544678   0.424712   7.657480  -1.389560  -3.152130  -0.461031   0.000000   0.000000   0.000000   1.108450   0.180098  -4.691270   1.727510   4.150300  -6.910870  -3.301530  -1.737770  -2.252450   0.000000   0.000000   0.000000
 -1.012640  89.559300   0.407237  -2.492710  -1.880870   2.885650   1.351670   2.395600  -1.705710   2.777740   4.749190  -3.472040  -0.069715   0.125493   0.007266  -0.114296   0.254447  12.312800  -7.863870   3.680790  -1.048970 -68.922800  17.107700  -5.855670  -3.003390 -10.719700 -11.147800   2.119140  -7.627000   6.289760  41.164500  25.319700 -62.745200 -17.779400   0.003005   0.005495  -3.886650   0.001478  -0.002675 -29.426100   5.128990  -9.005760 -24.406400   0.001464   0.006083 -17.084700   0.000998  -0.000284 -27.654400   1.434070  -2.734420 -30.166500   0.001165   0.000386 -20.090900  -0.011201  -0.001927 -27.293600  -2.149930   4.158410 -28.590700  -0.002415  -0.004407 -19.041300  -0.002374  -0.002608 -26.698200  -2.998690   5.952460 -40.279800  -0.001221  -0.011144 -26.826900  -0.003248  -0.004855   7.283680   0.904488  11.579800  67.323400  14.191400   4.226730   0.001305  -5.232550   8.939820  -9.605590 -10.373700   5.316770 -50.593000  36.315100  73.074100  11.098000   0.006703  -0.006692   0.549011   0.003473   0.012392  29.559000   7.589780  13.111000  24.899500  -0.008508  -0.002811  17.429600  -0.008621  -0.003089  28.001800   3.713220   6.945620  33.573700  -0.000769  -0.004454  22.360100   0.002999   0.001839  28.424600   1.480440   2.733280  35.678200  -0.000189  -0.003983  23.762600  -0.001497  -0.000255  34.125400   0.252529   0.373896  51.189500  -0.000451  -0.001458  34.092200  -0.000789  -0.002162   2.842450   5.129460   4.542430   0.546764   0.438213   7.652580  -1.391110  -3.153810  -0.464217  -0.000000   0.000000  -0.000000   1.108660   0.180214  -4.691400   1.729390   4.173780  -6.913950  -3.303330  -1.742680  -2.261610   0.000000   0.000000   0.000000
